<svg width="1028" height="222" viewBox="0 0 1028 222" fill="none" xmlns="http://www.w3.org/2000/svg">
<defs>
    <linearGradient id="myGradient">
      <stop offset="5%" stop-color="#3828ca">
        <animate
          attributeName="stop-color"
          values="#7A5FFF; #01FF89; #7A5FFF"
          dur="4s"
          repeatCount="indefinite"
        ></animate>
      </stop>
      <stop offset="95%" stop-color="#ff004c">
        <animate
          attributeName="stop-color"
          values="#01FF89; #7A5FFF; #01FF89"
          dur="4s"
          repeatCount="indefinite"
        ></animate>
      </stop>
    </linearGradient>
  </defs>
<path d="M262.523 83.5212H211.153V68.7525H277.392C275.655 62.4868 270.054 56.669 260.205 56.669H212.119C201.111 56.669 194.738 61.3681 194.738 71.6613V82.6261C194.738 91.5771 201.304 96.7238 210.96 96.7238H262.909V112.388H193C194.738 120.891 200.338 125.366 210.381 125.366H262.715C273.723 125.366 279.131 120.443 279.131 109.926V98.9615C279.131 89.3394 272.758 84.1928 262.523 83.5212ZM367.385 56.8926H304.043V125.59H322.003V99.1851H368.737C381.676 99.1851 388.821 94.0385 388.821 81.955V74.3466C388.628 63.1583 380.517 56.8926 367.385 56.8926ZM373.179 78.8222C373.179 83.7452 372.406 86.4301 365.454 86.4301H322.003L322.196 68.5289H364.682C372.406 68.5289 373.372 71.2138 373.372 75.9133V78.8222H373.179ZM448.495 98.7376H410.258L400.795 110.374H456.026L465.489 125.59H486.732L440.963 53.9836L430.149 69.4236L448.495 98.7376ZM521.107 68.7525H588.311C586.575 60.6969 579.814 56.669 570.159 56.669H519.949C511.258 56.669 502.954 60.6969 502.954 71.6613V110.15C502.954 121.115 511.258 125.143 519.949 125.143H570.739C582.326 125.143 586.383 121.338 588.311 112.164H521.107V68.7525ZM667.103 91.5771V79.9408H612.839V125.59H692.983V112.611H630.99V91.5771H667.103ZM614.771 56.8926H695.684V68.9764H614.771V56.8926ZM745.511 56.8926H717.315L750.532 85.0879C755.361 81.2835 760.958 77.2559 765.979 73.8991L745.511 56.8926ZM786.45 92.0247C781.621 95.8287 776.796 100.08 772.16 104.108L797.267 125.366H825.656L786.45 92.0247Z" fill="url('#myGradient')"/>
<path d="M717.853 57.1311H745.664L765.853 74.2176C760.9 77.5902 755.379 81.6367 750.617 85.459L717.853 57.1311Z" fill="url('#myGradient')"/>
<path d="M772.147 104.519C776.785 100.526 781.611 96.3116 786.441 92.541L825.656 125.59H797.261L772.147 104.519Z" fill="url('#myGradient')"/>
<path d="M961 17C806.35 27.2993 734.823 103.872 718.78 122.008L715.492 125.59H744.101C821.428 35.8074 932.583 19.9107 961 17Z" fill="url('#myGradient')"/>
<path d="M272.475 151.557H274.507V182.848H293.207V184.607H272.475V151.557ZM330.191 151.557H332.223V184.607H330.191V151.557ZM382.547 182.848H382.64L394.044 151.557H396.076L383.748 184.607H381.393L369.111 151.557H371.235L382.547 182.848ZM432.953 151.557H455.115V153.316H434.984V166.555H453.915V168.313H434.984V182.848H455.346V184.607H432.953V151.557ZM490.51 171.137H513.596V172.896H490.51V171.137ZM551.135 151.557H553.166V184.607H551.135V151.557ZM593.61 151.557H596.149L616.973 181.876H617.066V151.557H619.097V184.607H616.696L595.734 154.057H595.641V184.607H593.61V151.557ZM659.534 151.557H680.219V153.316H661.565V166.555H678.372V168.313H661.565V184.607H659.534V151.557ZM747.754 168.082C747.754 170.489 747.4 172.757 746.692 174.886C745.984 176.985 744.953 178.821 743.599 180.394C742.275 181.937 740.644 183.156 738.704 184.051C736.765 184.946 734.564 185.393 732.102 185.393C729.639 185.393 727.423 184.946 725.453 184.051C723.513 183.156 721.867 181.937 720.512 180.394C719.189 178.821 718.173 176.985 717.465 174.886C716.757 172.757 716.403 170.489 716.403 168.082C716.403 165.675 716.757 163.422 717.465 161.324C718.173 159.195 719.189 157.359 720.512 155.816C721.867 154.242 723.513 153.008 725.453 152.113C727.423 151.218 729.639 150.771 732.102 150.771C734.564 150.771 736.765 151.218 738.704 152.113C740.644 153.008 742.275 154.242 743.599 155.816C744.953 157.359 745.984 159.195 746.692 161.324C747.4 163.422 747.754 165.675 747.754 168.082ZM718.435 168.082C718.435 170.211 718.742 172.217 719.358 174.099C719.974 175.982 720.866 177.633 722.036 179.052C723.206 180.441 724.637 181.552 726.33 182.385C728.023 183.218 729.947 183.635 732.102 183.635C734.256 183.635 736.165 183.218 737.827 182.385C739.52 181.552 740.951 180.441 742.121 179.052C743.291 177.633 744.183 175.982 744.799 174.099C745.415 172.217 745.723 170.211 745.723 168.082C745.723 165.953 745.415 163.947 744.799 162.065C744.183 160.182 743.291 158.547 742.121 157.158C740.951 155.739 739.52 154.612 737.827 153.779C736.165 152.946 734.256 152.529 732.102 152.529C729.947 152.529 728.023 152.946 726.33 153.779C724.637 154.612 723.206 155.739 722.036 157.158C720.866 158.547 719.974 160.182 719.358 162.065C718.742 163.947 718.435 165.953 718.435 168.082Z" fill="url('#myGradient')"/>
</svg>
